<svg xmlns="http://www.w3.org/2000/svg" viewBox="0 0 24 24" fill="currentColor">
  <path d="M12 5c3.5 0 7 .7 7 2v10c0 1.3-3.5 2-7 2s-7-.7-7-2V7c0-1.3 3.5-2 7-2zm0 1.5c-2.8 0-5.5.5-5.5.5s2.7.5 5.5.5 5.5-.5 5.5-.5-2.7-.5-5.5-.5zm5.5 3c-1.2.4-3.3.5-5.5.5s-4.3-.1-5.5-.5v2.5c0 0 2.7.5 5.5.5s5.5-.5 5.5-.5V9.5zm0 3.5c-1.2.4-3.3.5-5.5.5s-4.3-.1-5.5-.5V15c0 0 2.7.5 5.5.5s5.5-.5 5.5-.5v-2z"/>
  <text x="12" y="13.5" font-family="Arial, sans-serif" font-size="10" font-weight="bold" fill="currentColor" text-anchor="middle" dominant-baseline="middle" opacity="0.9">R</text>
</svg>
