<svg xmlns="http://www.w3.org/2000/svg" viewBox="0 0 24 24" fill="currentColor">
  <path d="M12 3c4.5 0 9 .9 9 2.5v13c0 1.6-4.5 2.5-9 2.5s-9-.9-9-2.5v-13C3 3.9 7.5 3 12 3zm0 2c-3.6 0-7 .6-7 .5s3.4.5 7 .5 7-.6 7-.5-3.4-.5-7-.5zm7 3.5c-1.5.5-4.2.5-7 .5s-5.5-.1-7-.5v3c0 0 3.4.5 7 .5s7-.5 7-.5v-3zm0 4.5c-1.5.5-4.2.5-7 .5s-5.5-.1-7-.5v3c0 0 3.4.5 7 .5s7-.5 7-.5v-3z"/>
  <text x="12" y="13.5" font-family="Arial, sans-serif" font-size="11" font-weight="bold" fill="currentColor" text-anchor="middle" dominant-baseline="middle" opacity="0.95">R</text>
</svg>
