<svg xmlns="http://www.w3.org/2000/svg" viewBox="0 0 24 24" fill="currentColor">
  <path d="M12 1c5.5 0 10.5 1.2 10.5 3v16c0 1.8-5 3-10.5 3S1.5 21.8 1.5 20V4C1.5 2.2 6.5 1 12 1zm0 2.5c-4.8 0-8.5.9-8.5 1s3.7 1 8.5 1 8.5-.9 8.5-1-3.7-1-8.5-1zm8.5 3.5c-1.8.8-5.2 1-8.5 1s-6.7-.2-8.5-1v3.5c0 .5 3.7 1 8.5 1s8.5-.5 8.5-1V7zm0 5c-1.8.8-5.2 1-8.5 1s-6.7-.2-8.5-1v3.5c0 .5 3.7 1 8.5 1s8.5-.5 8.5-1V12zm0 5c-1.8.8-5.2 1-8.5 1s-6.7-.2-8.5-1V20c0 .5 3.7 1 8.5 1s8.5-.5 8.5-1v-3z"/>
  <text x="12" y="13" font-family="Arial, sans-serif" font-size="12" font-weight="bold" fill="currentColor" text-anchor="middle" dominant-baseline="middle" opacity="0.95">R</text>
</svg>
